<?xml version="1.0" encoding="utf-8"?>
<!-- Generator: Adobe Illustrator 16.0.4, SVG Export Plug-In . SVG Version: 6.00 Build 0)  -->
<!DOCTYPE svg PUBLIC "-//W3C//DTD SVG 1.1//EN" "http://www.w3.org/Graphics/SVG/1.1/DTD/svg11.dtd">
<svg version="1.1" id="Capa_1" xmlns="http://www.w3.org/2000/svg" xmlns:xlink="http://www.w3.org/1999/xlink" x="0px" y="0px"
	 width="30.051px" height="30.049px" viewBox="0 0 30.051 30.049" enable-background="new 0 0 30.051 30.049" xml:space="preserve">
<circle fill="#F44242" cx="15.026" cy="14.858" r="13.334"/>
<path d="M15.025,10.645c-2.416,0-4.384,1.963-4.384,4.385c0,2.412,1.968,4.375,4.384,4.375c2.418,0,4.384-1.963,4.384-4.375
	C19.409,12.607,17.443,10.645,15.025,10.645z"/>
<path d="M15.029,0C6.728,0,0,6.729,0,15.029c0,8.297,6.728,15.02,15.029,15.02c8.296,0,15.022-6.723,15.022-15.02
	C30.051,6.729,23.325,0,15.029,0z M15.029,27.541c-6.916,0-12.52-5.603-12.52-12.512c0-6.918,5.604-12.52,12.52-12.52
	c6.91,0,12.517,5.602,12.517,12.52C27.545,21.938,21.939,27.541,15.029,27.541z"/>
</svg>
