<?xml version="1.0" encoding="utf-8"?>
<!-- Generator: Adobe Illustrator 16.0.4, SVG Export Plug-In . SVG Version: 6.00 Build 0)  -->
<!DOCTYPE svg PUBLIC "-//W3C//DTD SVG 1.1//EN" "http://www.w3.org/Graphics/SVG/1.1/DTD/svg11.dtd">
<svg version="1.1" id="Capa_1" xmlns="http://www.w3.org/2000/svg" xmlns:xlink="http://www.w3.org/1999/xlink" x="0px" y="0px"
	 width="36px" height="26px" viewBox="0 0 36 26" enable-background="new 0 0 36 26" xml:space="preserve">
<g id="_x33_55._Volume_Indicator">
	<g>
		<path d="M4,18H2c-1.104,0-2,0.896-2,2v4c0,1.104,0.896,2,2,2h2c1.104,0,2-0.896,2-2v-4C6,18.895,5.104,18,4,18z M14,11.999h-2
			c-1.104,0-2,0.896-2,2v10c0,1.104,0.896,2,2,2h2c1.104,0,2-0.896,2-2V14C16,12.895,15.104,11.999,14,11.999z M24,5.999h-2
			c-1.104,0-2,0.896-2,2v16c0,1.104,0.896,2,2,2h2c1.104,0,2-0.896,2-2v-16C26,6.895,25.104,5.999,24,5.999z"/>
	</g>
</g>
</svg>
